<svg xmlns="http://www.w3.org/2000/svg" width="1000" height="600"><rect width="1000" height="600" x="0" y="0" fill="#FFFFFF" id="background"/><g id="viz"><clipPath id="serieClipPath"><rect x="-46" y="-12" width="1000" height="600"/></clipPath><g transform="translate(0,0)"><g transform="translate(46,12)" clip-path="url(#serieClipPath)"><g id="axis"><g transform="translate(0,566)" fill="none" font-size="10" font-family="sans-serif" text-anchor="middle"><path class="domain" stroke="currentColor" d="M0.5,6V0.5H939.5V6"/><g class="tick" opacity="1" transform="translate(0.5,0)"><line stroke="currentColor" y2="6"/><text fill="currentColor" y="9" dy="0.71em">March</text></g><g class="tick" opacity="1" transform="translate(117.875,0)"><line stroke="currentColor" y2="6"/><text fill="currentColor" y="9" dy="0.71em">Mar 08</text></g><g class="tick" opacity="1" transform="translate(235.25,0)"><line stroke="currentColor" y2="6"/><text fill="currentColor" y="9" dy="0.71em">Mar 15</text></g><g class="tick" opacity="1" transform="translate(352.625,0)"><line stroke="currentColor" y2="6"/><text fill="currentColor" y="9" dy="0.71em">Mar 22</text></g><g class="tick" opacity="1" transform="translate(470,0)"><line stroke="currentColor" y2="6"/><text fill="currentColor" y="9" dy="0.71em">Mar 29</text></g><g class="tick" opacity="1" transform="translate(587.375,0)"><line stroke="currentColor" y2="6"/><text fill="currentColor" y="9" dy="0.71em">Apr 05</text></g><g class="tick" opacity="1" transform="translate(704.75,0)"><line stroke="currentColor" y2="6"/><text fill="currentColor" y="9" dy="0.71em">Apr 12</text></g><g class="tick" opacity="1" transform="translate(822.125,0)"><line stroke="currentColor" y2="6"/><text fill="currentColor" y="9" dy="0.71em">Apr 19</text></g><g class="tick" opacity="1" transform="translate(939.5,0)"><line stroke="currentColor" y2="6"/><text fill="currentColor" y="9" dy="0.71em">Apr 26</text></g><text x="939" dy="-5" text-anchor="end" style="font-family: Arial, sans-serif; font-size: 12px; fill: rgb(123, 123, 123); font-weight: bold;">Dia</text></g><g transform="translate(0,0)" fill="none" font-size="10" font-family="sans-serif" text-anchor="end"><path class="domain" stroke="currentColor" d="M0.5,566.5V0.5"/><g class="tick" opacity="1" transform="translate(0,566.5)"><line stroke="currentColor" x2="-6"/><text fill="currentColor" x="-9" dy="0.32em">0</text></g><g class="tick" opacity="1" transform="translate(0,526.0714285714286)"><line stroke="currentColor" x2="-6"/><text fill="currentColor" x="-9" dy="0.32em">5,000</text></g><g class="tick" opacity="1" transform="translate(0,485.64285714285717)"><line stroke="currentColor" x2="-6"/><text fill="currentColor" x="-9" dy="0.32em">10,000</text></g><g class="tick" opacity="1" transform="translate(0,445.2142857142857)"><line stroke="currentColor" x2="-6"/><text fill="currentColor" x="-9" dy="0.32em">15,000</text></g><g class="tick" opacity="1" transform="translate(0,404.7857142857143)"><line stroke="currentColor" x2="-6"/><text fill="currentColor" x="-9" dy="0.32em">20,000</text></g><g class="tick" opacity="1" transform="translate(0,364.35714285714283)"><line stroke="currentColor" x2="-6"/><text fill="currentColor" x="-9" dy="0.32em">25,000</text></g><g class="tick" opacity="1" transform="translate(0,323.9285714285714)"><line stroke="currentColor" x2="-6"/><text fill="currentColor" x="-9" dy="0.32em">30,000</text></g><g class="tick" opacity="1" transform="translate(0,283.5)"><line stroke="currentColor" x2="-6"/><text fill="currentColor" x="-9" dy="0.32em">35,000</text></g><g class="tick" opacity="1" transform="translate(0,243.07142857142858)"><line stroke="currentColor" x2="-6"/><text fill="currentColor" x="-9" dy="0.32em">40,000</text></g><g class="tick" opacity="1" transform="translate(0,202.6428571428571)"><line stroke="currentColor" x2="-6"/><text fill="currentColor" x="-9" dy="0.32em">45,000</text></g><g class="tick" opacity="1" transform="translate(0,162.2142857142857)"><line stroke="currentColor" x2="-6"/><text fill="currentColor" x="-9" dy="0.32em">50,000</text></g><g class="tick" opacity="1" transform="translate(0,121.78571428571429)"><line stroke="currentColor" x2="-6"/><text fill="currentColor" x="-9" dy="0.32em">55,000</text></g><g class="tick" opacity="1" transform="translate(0,81.35714285714289)"><line stroke="currentColor" x2="-6"/><text fill="currentColor" x="-9" dy="0.32em">60,000</text></g><g class="tick" opacity="1" transform="translate(0,40.92857142857141)"><line stroke="currentColor" x2="-6"/><text fill="currentColor" x="-9" dy="0.32em">65,000</text></g><g class="tick" opacity="1" transform="translate(0,0.5)"><line stroke="currentColor" x2="-6"/><text fill="currentColor" x="-9" dy="0.32em">70,000</text></g><text x="4" text-anchor="start" dominant-baseline="hanging" style="font-family: Arial, sans-serif; font-size: 12px; fill: rgb(123, 123, 123); font-weight: bold;">Distancia (metros)</text></g></g><g id="viz"><g><path d="M16.767857142857142,561.7949434285714C41.919642857142854,561.7949434285714,41.919642857142854,328.7654662857143,67.07142857142857,328.7654662857143C75.45535714285714,328.7654662857143,75.45535714285714,284.21415085714284,83.83928571428572,284.21415085714284C92.22321428571428,284.21415085714284,92.22321428571428,549.4233962857143,100.60714285714285,549.4233962857143C108.99107142857142,549.4233962857143,108.99107142857142,557.5898868571428,117.375,557.5898868571428C125.75892857142857,557.5898868571428,125.75892857142857,405.4791657142857,134.14285714285714,405.4791657142857C142.52678571428572,405.4791657142857,142.52678571428572,338.46816171428566,150.9107142857143,338.46816171428566C159.2946428571429,338.46816171428566,159.2946428571429,366.23377685714286,167.67857142857144,366.23377685714286C176.0625,366.23377685714286,176.0625,266.2184234285714,184.44642857142856,266.2184234285714C192.8303571428571,266.2184234285714,192.8303571428571,26.518474571428573,201.2142857142857,26.518474571428573C209.59821428571428,26.518474571428573,209.59821428571428,105.52746571428573,217.98214285714286,105.52746571428573C226.36607142857144,105.52746571428573,226.36607142857144,489.7200991428572,234.75,489.7200991428572C243.13392857142856,489.7200991428572,243.13392857142856,322.23762657142856,251.51785714285714,322.23762657142856C259.9017857142857,322.23762657142856,259.9017857142857,184.2889531428571,268.2857142857143,184.2889531428571C276.66964285714283,184.2889531428571,276.66964285714283,311.94249085714284,285.0535714285714,311.94249085714284C293.4375,311.94249085714284,293.4375,356.67985857142855,301.8214285714286,356.67985857142855C310.20535714285717,356.67985857142855,310.20535714285717,356.6942511428571,318.5892857142857,356.6942511428571C326.97321428571433,356.6942511428571,326.97321428571433,291.8604874285714,335.3571428571429,291.8604874285714C343.74107142857144,291.8604874285714,343.74107142857144,554.2019725714285,352.125,554.2019725714285C360.50892857142856,554.2019725714285,360.50892857142856,409.47116371428575,368.8928571428571,409.47116371428575C377.27678571428567,409.47116371428575,377.27678571428567,540.840168,385.6607142857143,540.840168C394.04464285714283,540.840168,394.04464285714283,549.5631174285714,402.4285714285714,549.5631174285714C410.8125,549.5631174285714,410.8125,372.79913428571433,419.1964285714286,372.79913428571433C427.58035714285717,372.79913428571433,427.58035714285717,364.37673085714283,435.9642857142857,364.37673085714283C444.34821428571433,364.37673085714283,444.34821428571433,541.1870451428572,452.7321428571429,541.1870451428572C461.11607142857144,541.1870451428572,461.11607142857144,520.6061531428571,469.5,520.6061531428571C477.88392857142856,520.6061531428571,477.88392857142856,403.85232,486.26785714285717,403.85232C494.6517857142857,403.85232,494.6517857142857,557.7837014285715,503.0357142857143,557.7837014285715C511.4196428571429,557.7837014285715,511.4196428571429,519.2000474285715,519.8035714285714,519.2000474285715C528.1875,519.2000474285715,528.1875,543.0858942857143,536.5714285714286,543.0858942857143C544.9553571428571,543.0858942857143,544.9553571428571,564.1826548571428,553.3392857142858,564.1826548571428C561.7232142857142,564.1826548571428,561.7232142857142,562.4599934285715,570.1071428571428,562.4599934285715C578.4910714285713,562.4599934285715,578.4910714285713,505.321404,586.875,505.321404C595.2589285714287,505.321404,595.2589285714287,407.6871317142857,603.6428571428572,407.6871317142857C612.0267857142858,407.6871317142857,612.0267857142858,545.9192902857143,620.4107142857142,545.9192902857143C628.7946428571429,545.9192902857143,628.7946428571429,560.072282,637.1785714285714,560.072282C645.5625,560.072282,645.5625,342.31599142857146,653.9464285714286,342.31599142857146C662.3303571428571,342.31599142857146,662.3303571428571,392.59619714285714,670.7142857142858,392.59619714285714C679.0982142857142,392.59619714285714,679.0982142857142,529.7295071428572,687.4821428571428,529.7295071428572C695.8660714285713,529.7295071428572,695.8660714285713,558.7939305714286,704.25,558.7939305714286C712.6339285714287,558.7939305714286,712.6339285714287,394.29193314285715,721.0178571428572,394.29193314285715C737.7857142857143,394.29193314285715,737.7857142857143,510.87151914285715,754.5535714285714,510.87151914285715C771.3214285714287,510.87151914285715,771.3214285714287,341.7719037142857,788.0892857142858,341.7719037142857C796.4732142857142,341.7719037142857,796.4732142857142,518.9024931428571,804.8571428571428,518.9024931428571C813.2410714285713,518.9024931428571,813.2410714285713,556.6269591428571,821.625,556.6269591428571C830.0089285714287,556.6269591428571,830.0089285714287,490.110154,838.3928571428572,490.110154" stroke="#1f77b4" fill="none"/><text font-family="sans-serif" font-size="10" class="labels" x="201.2142857142857" y="26.518474571428573" dx="0" dy="-4" text-anchor="middle"/></g></g></g><text y="4" x="4" style="font-family: Arial, sans-serif; font-size: 12px; fill: black; font-weight: bold; dominant-baseline: hanging;"/></g><g id="grid"><rect x="0" y="0" width="1000" height="600" fill="none" stroke="#ccc"/></g></g></svg>