<svg xmlns="http://www.w3.org/2000/svg" width="1000" height="800"><rect width="1000" height="800" x="0" y="0" fill="#ffffff" id="background"/><g id="viz"><clipPath id="serieClipPath"><rect x="-50" y="-15" width="1000" height="800"/></clipPath><g transform="translate(0,0)"><g transform="translate(50,15)" clip-path="url(#serieClipPath)"><g id="axis"><g transform="translate(0,760)" fill="none" font-size="10" font-family="sans-serif" text-anchor="middle"><path class="domain" stroke="currentColor" d="M0.5,6V0.5H930.5V6"/><g class="tick" opacity="1" transform="translate(0.5,0)"><line stroke="currentColor" y2="6"/><text fill="currentColor" y="9" dy="0.71em">March</text></g><g class="tick" opacity="1" transform="translate(116.75,0)"><line stroke="currentColor" y2="6"/><text fill="currentColor" y="9" dy="0.71em">Mar 08</text></g><g class="tick" opacity="1" transform="translate(233,0)"><line stroke="currentColor" y2="6"/><text fill="currentColor" y="9" dy="0.71em">Mar 15</text></g><g class="tick" opacity="1" transform="translate(349.25,0)"><line stroke="currentColor" y2="6"/><text fill="currentColor" y="9" dy="0.71em">Mar 22</text></g><g class="tick" opacity="1" transform="translate(465.5,0)"><line stroke="currentColor" y2="6"/><text fill="currentColor" y="9" dy="0.71em">Mar 29</text></g><g class="tick" opacity="1" transform="translate(581.75,0)"><line stroke="currentColor" y2="6"/><text fill="currentColor" y="9" dy="0.71em">Apr 05</text></g><g class="tick" opacity="1" transform="translate(698,0)"><line stroke="currentColor" y2="6"/><text fill="currentColor" y="9" dy="0.71em">Apr 12</text></g><g class="tick" opacity="1" transform="translate(814.25,0)"><line stroke="currentColor" y2="6"/><text fill="currentColor" y="9" dy="0.71em">Apr 19</text></g><g class="tick" opacity="1" transform="translate(930.5,0)"><line stroke="currentColor" y2="6"/><text fill="currentColor" y="9" dy="0.71em">Apr 26</text></g><text x="930" dy="-5" text-anchor="end" style="font-family: Arial, sans-serif; font-size: 12px; fill: rgb(123, 123, 123); font-weight: bold;">Dia</text></g><g transform="translate(0,0)" fill="none" font-size="10" font-family="sans-serif" text-anchor="end"><path class="domain" stroke="currentColor" d="M0.5,760.5V0.5"/><g class="tick" opacity="1" transform="translate(0,760.5)"><line stroke="currentColor" x2="-6"/><text fill="currentColor" x="-9" dy="0.32em">0</text></g><g class="tick" opacity="1" transform="translate(0,706.2142857142858)"><line stroke="currentColor" x2="-6"/><text fill="currentColor" x="-9" dy="0.32em">5,000</text></g><g class="tick" opacity="1" transform="translate(0,651.9285714285714)"><line stroke="currentColor" x2="-6"/><text fill="currentColor" x="-9" dy="0.32em">10,000</text></g><g class="tick" opacity="1" transform="translate(0,597.6428571428571)"><line stroke="currentColor" x2="-6"/><text fill="currentColor" x="-9" dy="0.32em">15,000</text></g><g class="tick" opacity="1" transform="translate(0,543.3571428571429)"><line stroke="currentColor" x2="-6"/><text fill="currentColor" x="-9" dy="0.32em">20,000</text></g><g class="tick" opacity="1" transform="translate(0,489.0714285714285)"><line stroke="currentColor" x2="-6"/><text fill="currentColor" x="-9" dy="0.32em">25,000</text></g><g class="tick" opacity="1" transform="translate(0,434.7857142857143)"><line stroke="currentColor" x2="-6"/><text fill="currentColor" x="-9" dy="0.32em">30,000</text></g><g class="tick" opacity="1" transform="translate(0,380.5)"><line stroke="currentColor" x2="-6"/><text fill="currentColor" x="-9" dy="0.32em">35,000</text></g><g class="tick" opacity="1" transform="translate(0,326.2142857142857)"><line stroke="currentColor" x2="-6"/><text fill="currentColor" x="-9" dy="0.32em">40,000</text></g><g class="tick" opacity="1" transform="translate(0,271.9285714285714)"><line stroke="currentColor" x2="-6"/><text fill="currentColor" x="-9" dy="0.32em">45,000</text></g><g class="tick" opacity="1" transform="translate(0,217.64285714285714)"><line stroke="currentColor" x2="-6"/><text fill="currentColor" x="-9" dy="0.32em">50,000</text></g><g class="tick" opacity="1" transform="translate(0,163.35714285714286)"><line stroke="currentColor" x2="-6"/><text fill="currentColor" x="-9" dy="0.32em">55,000</text></g><g class="tick" opacity="1" transform="translate(0,109.07142857142861)"><line stroke="currentColor" x2="-6"/><text fill="currentColor" x="-9" dy="0.32em">60,000</text></g><g class="tick" opacity="1" transform="translate(0,54.78571428571426)"><line stroke="currentColor" x2="-6"/><text fill="currentColor" x="-9" dy="0.32em">65,000</text></g><g class="tick" opacity="1" transform="translate(0,0.5)"><line stroke="currentColor" x2="-6"/><text fill="currentColor" x="-9" dy="0.32em">70,000</text></g><text x="4" text-anchor="start" dominant-baseline="hanging" style="font-family: Arial, sans-serif; font-size: 12px; fill: rgb(123, 123, 123); font-weight: bold;">Distancia (metros)</text></g></g><g id="viz"><g><path d="M16.607142857142858,754.3536342857143C41.517857142857146,754.3536342857143,41.517857142857146,441.4518628571429,66.42857142857143,441.4518628571429C74.73214285714286,441.4518628571429,74.73214285714286,381.63030857142854,83.03571428571429,381.63030857142854C91.33928571428572,381.63030857142854,91.33928571428572,737.7416628571428,99.64285714285714,737.7416628571428C107.94642857142857,737.7416628571428,107.94642857142857,748.7072685714286,116.25,748.7072685714286C124.55357142857143,748.7072685714286,124.55357142857143,544.4596571428572,132.85714285714286,544.4596571428572C141.16071428571428,544.4596571428572,141.16071428571428,454.4802171428571,149.46428571428572,454.4802171428571C157.76785714285717,454.4802171428571,157.76785714285717,491.76266857142855,166.07142857142858,491.76266857142855C174.375,491.76266857142855,174.375,357.4664342857143,182.67857142857142,357.4664342857143C190.98214285714283,357.4664342857143,190.98214285714283,35.607845714285716,199.28571428571428,35.607845714285716C207.58928571428572,35.607845714285716,207.58928571428572,141.69765714285717,215.89285714285714,141.69765714285717C224.19642857142856,141.69765714285717,224.19642857142856,657.5746914285714,232.5,657.5746914285714C240.80357142857144,657.5746914285714,240.80357142857144,432.6865657142857,249.10714285714286,432.6865657142857C257.4107142857143,432.6865657142857,257.4107142857143,247.45513142857138,265.7142857142857,247.45513142857138C274.0178571428571,247.45513142857138,274.0178571428571,418.8627085714285,282.32142857142856,418.8627085714285C290.625,418.8627085714285,290.625,478.9340857142857,298.92857142857144,478.9340857142857C307.2321428571429,478.9340857142857,307.2321428571429,478.9534114285714,315.5357142857143,478.9534114285714C323.8392857142857,478.9534114285714,323.8392857142857,391.8974742857143,332.14285714285717,391.8974742857143C340.44642857142856,391.8974742857143,340.44642857142856,744.1581257142857,348.75,744.1581257142857C357.05357142857144,744.1581257142857,357.05357142857144,549.8199371428572,365.35714285714283,549.8199371428572C373.6607142857143,549.8199371428572,373.6607142857143,726.2164799999999,381.9642857142857,726.2164799999999C390.2678571428571,726.2164799999999,390.2678571428571,737.9292742857143,398.57142857142856,737.9292742857143C406.875,737.9292742857143,406.875,500.5783428571429,415.17857142857144,500.5783428571429C423.4821428571429,500.5783428571429,423.4821428571429,489.2691085714285,431.7857142857143,489.2691085714285C440.0892857142857,489.2691085714285,440.0892857142857,726.6822514285715,448.39285714285717,726.6822514285715C456.69642857142856,726.6822514285715,456.69642857142856,699.0471314285714,465,699.0471314285714C473.30357142857144,699.0471314285714,473.30357142857144,542.2752,481.6071428571429,542.2752C489.91071428571433,542.2752,489.91071428571433,748.9675142857143,498.2142857142857,748.9675142857143C506.5178571428571,748.9675142857143,506.5178571428571,697.1590742857143,514.8214285714286,697.1590742857143C523.125,697.1590742857143,523.125,729.2319428571428,531.4285714285714,729.2319428571428C539.7321428571429,729.2319428571428,539.7321428571429,757.5597485714285,548.0357142857143,757.5597485714285C556.3392857142858,757.5597485714285,556.3392857142858,755.2466342857143,564.6428571428571,755.2466342857143C572.9464285714286,755.2466342857143,572.9464285714286,678.5234399999999,581.25,678.5234399999999C589.5535714285714,678.5234399999999,589.5535714285714,547.4244171428571,597.8571428571429,547.4244171428571C606.1607142857142,547.4244171428571,606.1607142857142,733.0365028571429,614.4642857142857,733.0365028571429C622.7678571428571,733.0365028571429,622.7678571428571,752.04052,631.0714285714286,752.04052C639.375,752.04052,639.375,459.64691428571433,647.6785714285714,459.64691428571433C655.9821428571429,459.64691428571433,655.9821428571429,527.1609714285714,664.2857142857143,527.1609714285714C672.5892857142858,527.1609714285714,672.5892857142858,711.2975714285715,680.8928571428571,711.2975714285715C689.1964285714286,711.2975714285715,689.1964285714286,750.3240057142857,697.5,750.3240057142857C705.8035714285714,750.3240057142857,705.8035714285714,529.4379314285715,714.1071428571429,529.4379314285715C730.7142857142858,529.4379314285715,730.7142857142858,685.9758914285715,747.3214285714286,685.9758914285715C763.9285714285714,685.9758914285715,763.9285714285714,458.9163371428572,780.5357142857143,458.9163371428572C788.8392857142858,458.9163371428572,788.8392857142858,696.7595314285714,797.1428571428571,696.7595314285714C805.4464285714286,696.7595314285714,805.4464285714286,747.4142914285713,813.75,747.4142914285713C822.0535714285714,747.4142914285713,822.0535714285714,658.09844,830.3571428571429,658.09844" stroke="#2c98f2" fill="none"/><text font-family="sans-serif" font-size="10" class="labels" x="199.28571428571428" y="35.607845714285716" dx="0" dy="-4" text-anchor="middle"/></g></g></g><text y="4" x="4" style="font-family: Arial, sans-serif; font-size: 12px; fill: black; font-weight: bold; dominant-baseline: hanging;"/></g><g id="grid"><rect x="0" y="0" width="1000" height="800" fill="none" stroke="#ccc"/></g></g></svg>